<svg width="1440" height="536" viewBox="0 0 1440 536" fill="none" xmlns="http://www.w3.org/2000/svg">
<path d="M24.8619 133.099C11.9337 132.217 0 137.507 0 137.507V536H1440V258.289H1413.15C1413.15 258.289 1390.28 251.236 1371.38 241.539C1352.49 231.841 1317.68 255.644 1317.68 255.644C1301.67 247.731 1291.62 246.268 1271.93 248.591C1253.28 237.617 1241.26 257.924 1221.22 270.632C1186 264.867 1160.55 287.383 1130.72 279.448C1100.88 271.514 1081.99 279.448 1056.13 275.04C1030.28 270.632 1021.33 290.028 1006.41 275.04H1003.43C1003.43 275.04 968.619 243.302 945.746 245.947C922.873 248.591 911.934 252.118 890.055 245.947C890.055 245.947 898.011 246.927 888.066 244.183C878.122 241.439 756.796 242.42 758.785 228.314C760.773 214.208 754.144 224.494 752.818 223.024C722.302 226.642 705.026 226.03 673.26 209.8H658.343C639.153 200.969 623.536 213.327 611.602 200.102C599.669 186.878 538.011 163.956 499.227 176.299C460.442 188.641 426.63 198.339 419.669 187.76C412.707 177.18 412.707 189.523 407.735 181.588C402.762 173.654 395.801 187.76 395.801 187.76H340.111C311.026 162.837 288.398 170.127 259.558 156.903C230.718 143.679 218.046 150.786 197.901 162.193H147.182C145.505 158.129 144.052 156.097 132.265 156.903C125.394 146.117 119.924 142.155 101.436 146.323C84.8979 139.243 73.2231 137.132 48.6763 139.614C45.5748 139.928 42.4627 138.809 39.747 137.279C36.6607 135.54 31.7491 133.569 24.8619 133.099Z" fill="#73915B"/>
<path d="M1236.44 147.481C1235.48 150.456 1234.65 153.744 1234.65 154.84C1234.65 156.093 1232.45 160.947 1229.84 165.958C1225.02 175.04 1223.65 179.111 1226.67 175.666C1229.56 172.378 1230.39 173.63 1228.87 178.485C1228.05 181.147 1225.44 185.218 1222.82 187.567C1220.07 190.072 1218.42 192.734 1218.84 194.143C1219.25 195.709 1217.74 197.275 1214.02 199.154C1206.46 202.755 1207.01 205.104 1215.67 205.104C1222.41 205.104 1222.55 205.261 1220.35 208.079C1218.15 210.741 1212.51 214.03 1203.85 217.631C1201.65 218.571 1200.27 219.667 1200.55 220.137C1201.23 220.919 1213.75 218.884 1221.59 216.848L1225.71 215.596L1221.59 220.763C1217.19 226.087 1208.25 231.567 1203.71 231.724C1202.2 231.724 1200 232.35 1198.9 233.29C1197.24 234.386 1197.24 235.169 1199.45 237.831C1200.96 239.71 1203.43 241.119 1204.95 241.119C1206.6 241.119 1208.66 241.745 1209.76 242.528C1211.13 243.624 1210.72 244.407 1207.7 245.973C1202.75 248.792 1202.75 250.671 1207.56 253.333C1210.58 255.055 1211 255.838 1209.9 258.344C1207.7 263.198 1205.91 263.511 1199.31 260.692L1192.98 257.874L1196.69 255.682C1200.13 253.646 1200.55 250.514 1197.24 250.514C1196.42 250.514 1193.53 248.635 1190.92 246.286C1186.24 242.372 1186.24 242.059 1188.99 240.963C1192.98 239.24 1192.84 237.361 1188.31 234.856C1184.46 232.977 1184.46 232.977 1187.62 231.567C1190.92 230.158 1191.74 227.026 1188.72 227.026C1187.62 227.026 1185.42 225.617 1183.63 223.895L1180.33 220.919L1183.63 220.763H1186.93L1184.18 217.161C1180.61 212.777 1178.27 204.948 1178.13 196.649C1177.99 189.759 1177.58 190.855 1176.2 202.286C1175.79 206.357 1174.42 210.741 1173.32 211.994C1172.22 213.247 1171.53 215.282 1171.67 216.378C1171.94 217.475 1170.02 219.04 1167.68 219.823C1165.2 220.763 1163.14 222.016 1163.14 222.642C1163.14 223.895 1165.34 224.521 1167.68 224.051C1169.6 223.738 1168.64 226.87 1166.3 228.436C1163.97 230.001 1163.97 230.001 1166.3 230.158C1172.08 230.158 1167.4 234.856 1161.35 234.856C1158.46 235.012 1158.46 235.012 1160.94 237.204C1162.32 238.301 1163 240.023 1162.45 240.963C1162.04 241.902 1162.59 242.685 1163.97 242.685C1165.75 242.685 1165.89 243.155 1164.52 245.034C1163.55 246.286 1161.77 247.383 1160.53 247.383C1159.29 247.539 1156.54 248.479 1154.2 249.575L1150.08 251.767L1153.93 253.489C1156.13 254.429 1157.64 256.308 1157.64 258.187C1157.64 261.632 1152.83 266.173 1149.11 266.173C1144.99 266.173 1146.36 268.991 1151.45 271.027C1157.23 273.376 1157.36 274.472 1152.69 276.821C1148.29 279.17 1145.54 277.604 1139.35 268.991C1131.92 258.344 1131.92 258.03 1137.84 258.344C1140.86 258.5 1145.4 258.5 1148.01 258.344C1152.28 258.187 1152.55 258.03 1149.66 256.778C1148.01 255.995 1145.81 254.586 1144.85 253.646C1144.03 252.706 1141 250.514 1138.39 248.479C1133.99 245.19 1123.26 230.941 1123.26 228.122C1123.26 227.496 1126.15 229.375 1129.72 232.507C1136.87 238.77 1144.03 241.589 1150.08 240.806L1154.2 240.336L1148.98 237.361C1142.38 233.603 1141.55 232.037 1145.13 229.219C1149.53 225.617 1148.56 223.112 1142.1 221.233C1138.94 220.137 1134.54 217.788 1132.47 215.909C1128.9 212.934 1128.76 212.307 1130.69 209.958C1133.85 206.044 1133.44 201.973 1130 201.973C1126.7 201.973 1121.88 199.311 1121.88 197.432C1121.88 196.649 1123.26 195.709 1124.91 195.239L1127.94 194.3L1124.77 190.385C1122.43 187.567 1121.75 185.374 1122.43 182.556C1122.98 179.894 1122.3 176.292 1120.51 172.221C1119 168.933 1117.76 164.235 1117.76 162.043C1117.76 155.936 1115.42 157.502 1114.46 164.235C1114.05 167.68 1111.98 172.534 1110.06 175.196C1107.17 179.268 1106.76 180.52 1108.13 182.399C1109.51 184.278 1109.1 185.218 1105.52 187.41C1103.18 188.976 1101.26 191.011 1101.26 192.108C1101.26 194.3 1106.21 196.335 1108.13 194.926C1108.82 194.456 1109.51 194.613 1109.51 195.552C1109.51 197.745 1103.87 201.973 1101.12 201.973C1099.88 201.973 1098.09 203.069 1097.13 204.321C1095.76 206.2 1096.17 206.983 1099.33 208.549C1104.69 211.055 1104.56 210.898 1102.49 213.247C1098.37 217.631 1090.67 219.51 1082.69 217.788C1078.57 216.848 1073.75 215.439 1072.24 214.343C1069.35 212.62 1069.35 212.62 1071.83 216.378C1073.07 218.414 1076.64 221.859 1079.53 223.895C1085.99 228.436 1086.13 230.158 1080.35 230.158L1075.82 230.315L1079.8 232.82C1082.55 234.386 1085.99 235.012 1090.39 234.542C1094.11 234.073 1097.41 234.073 1097.82 234.542C1099.06 235.952 1087.51 244.564 1079.67 248.165C1072.79 251.454 1072.24 251.924 1074.85 253.489C1076.37 254.429 1080.49 255.212 1083.93 255.212C1090.39 255.212 1091.49 256.308 1088.61 259.596C1087.37 261.006 1088.19 261.475 1092.32 261.475H1097.68L1093.01 266.173C1090.39 268.678 1087.51 270.714 1086.68 270.871C1085.85 270.871 1082.14 272.75 1078.43 274.942C1074.44 277.447 1068.39 279.483 1063.58 280.109L1055.6 281.049L1058.35 284.963C1060.55 288.095 1062.75 289.035 1069.08 289.661L1077.19 290.444L1071.97 294.045C1062.89 299.996 1070.04 303.127 1082 298.273C1085.85 296.707 1088.47 296.394 1089.43 297.49C1090.53 298.43 1092.32 298.117 1094.79 296.707C1100.71 293.262 1099.19 296.551 1090.94 305.006C1086.13 310.174 1080.9 313.775 1076.23 315.498C1072.24 317.063 1068.12 318.942 1067.15 319.882C1064.26 322.387 1068.94 325.676 1075.4 325.676C1078.29 325.676 1080.63 325.989 1080.63 326.459C1080.63 328.024 1067.84 340.708 1063.58 343.213C1061.24 344.623 1056.98 345.875 1054.23 346.032C1051.34 346.032 1049 346.658 1049 347.598C1049 350.573 1055.33 352.765 1064.4 352.765C1069.49 352.765 1073.75 353.235 1073.75 353.705C1073.62 356.523 1066.05 363.726 1059.73 367.014L1052.44 370.773L1255 370.929C1476.41 371.086 1459.08 371.712 1468.16 362.63C1472.56 358.246 1472.01 356.993 1465.41 356.993C1461.28 356.993 1457.29 355.427 1451.93 351.826L1444.37 346.815L1452.89 346.032C1460.87 345.249 1466.64 342.9 1460.46 342.9C1456.05 342.9 1456.74 341.021 1462.52 337.42C1468.98 333.348 1470.36 329.747 1464.58 332.096C1457.43 334.914 1442.58 328.651 1438.45 320.978C1435.56 315.654 1438.31 313.462 1446.84 314.245L1453.99 314.871L1450.14 312.366C1446.43 310.017 1446.29 309.547 1448.35 307.042C1450.55 304.38 1450.42 304.067 1446.57 303.284C1444.23 302.658 1439.83 299.369 1436.66 295.768L1430.89 289.191L1435.56 286.529C1438.18 285.12 1440.1 283.084 1439.83 282.145C1439.69 281.049 1440.38 280.266 1441.34 280.266C1442.3 280.266 1444.23 279.326 1445.74 278.23C1447.94 276.194 1447.8 276.038 1444.23 276.664C1441.48 277.134 1439 276.351 1436.39 274.002C1431.58 269.618 1431.71 268.522 1437.21 266.799L1441.62 265.233L1437.63 261.475C1432.54 256.465 1430.34 250.514 1429.24 238.457C1428.69 233.29 1427.73 228.122 1427.18 227.026C1425.39 223.895 1423.05 226.87 1423.05 232.194C1423.05 237.831 1418.65 247.069 1415.49 248.165C1408.89 250.514 1408.89 250.514 1410.54 252.706C1411.91 254.429 1411.64 255.055 1409.71 255.682C1407.79 256.151 1408.06 256.465 1410.95 257.404C1413.01 258.03 1414.94 259.753 1415.35 261.006C1416.31 263.668 1413.97 267.739 1411.77 267.739C1410.95 267.739 1411.09 266.799 1412.05 265.547C1413.42 263.511 1412.6 263.198 1406.96 263.198C1398.98 263.354 1394.72 261.632 1388.95 256.151C1384 251.297 1384.41 247.383 1389.91 247.383C1400.22 247.226 1402.84 242.998 1394.58 239.71C1391.7 238.614 1386.06 235.169 1382.07 232.037L1374.78 226.557L1379.32 224.208C1383.44 222.016 1383.58 221.702 1380.83 221.233C1379.04 220.763 1377.67 219.823 1377.67 218.884C1377.67 218.101 1378.49 217.631 1379.46 218.101C1381.66 219.04 1387.3 216.535 1387.3 214.499C1387.3 213.717 1385.92 212.934 1384.13 212.934C1380.56 212.934 1373.96 204.321 1376.29 202.755C1377.12 202.286 1378.22 202.129 1378.91 202.755C1381.24 204.321 1382.07 200.25 1380.14 197.588C1377.39 193.987 1373.54 182.399 1373.54 178.015C1373.54 175.979 1372.72 173.161 1371.76 171.595C1370.11 169.089 1369.69 169.716 1368.04 177.545C1365.84 188.036 1361.44 196.805 1357.04 199.311C1352.78 201.816 1351.95 205.104 1355.53 205.104C1360.62 205.104 1358.69 207.766 1350.99 211.368C1346.87 213.247 1343.15 215.752 1342.74 217.005C1342.33 218.258 1340.54 219.197 1338.89 219.354C1336.83 219.51 1337.79 220.137 1341.5 221.233C1349.2 223.738 1349.75 224.678 1344.39 226.87C1330.09 232.977 1328.58 235.952 1338.89 237.518C1345.08 238.457 1347.83 242.372 1343.29 243.781C1339.3 245.034 1340.81 248.165 1345.21 247.852C1347.14 247.696 1348.79 248.165 1348.79 248.792C1348.79 250.671 1343.01 256.151 1338.2 258.97C1332.98 261.945 1332.29 262.102 1332.29 259.753C1332.29 258.97 1334.21 257.404 1336.41 256.621C1340.81 254.742 1342.05 252.08 1338.48 252.08C1335.04 252.08 1330.23 247.852 1325.69 240.493L1321.29 233.603L1324.72 232.663C1329.13 231.411 1329.13 229.532 1324.72 227.34C1321.15 225.46 1317.85 218.571 1319.36 215.909C1319.77 215.126 1319.64 210.428 1319.09 205.574L1318.12 196.805L1315.65 204.478C1314.14 208.706 1313.04 214.03 1313.04 216.535C1313.04 220.137 1312.35 221.076 1308.63 221.859L1304.37 222.799L1307.4 225.617C1310.29 228.436 1310.29 228.436 1307.67 230.001C1306.16 230.941 1303 231.724 1300.52 231.724C1296.26 231.724 1296.12 231.881 1298.73 234.073C1301.35 236.265 1301.35 236.265 1298.6 236.422C1295.98 236.578 1295.98 236.578 1298.32 238.144C1299.7 239.083 1302.45 239.397 1304.37 238.927C1309.32 237.361 1307.12 240.493 1300.52 244.407C1294.33 247.852 1289.52 248.635 1283.47 246.913L1279.34 245.66L1283.06 249.888C1285.81 253.02 1288.69 254.429 1294.47 255.368C1298.73 255.995 1302.58 256.934 1303 257.404C1304.1 258.657 1297.91 264.137 1293.23 266.016C1289.79 267.582 1289.38 267.426 1290.07 264.764C1290.62 261.945 1290.34 261.945 1286.08 263.981C1279.76 266.956 1272.19 266.643 1262.7 263.041C1253.35 259.283 1249.23 255.838 1256.38 257.561C1261.19 258.657 1276.59 256.934 1273.29 255.525C1272.19 255.212 1269.17 253.176 1266.55 251.141L1261.74 247.383H1266.97H1272.19L1269.58 244.094C1268.2 242.215 1267.65 240.336 1268.34 240.023C1269.17 239.866 1271.92 237.987 1274.53 236.265L1279.34 232.82L1270.4 229.375C1260.64 225.774 1253.08 221.546 1251.98 219.354C1251.56 218.571 1253.77 217.475 1257.07 217.005C1264.08 215.752 1269.03 212.307 1269.03 208.549C1269.03 206.357 1267.65 205.887 1261.74 205.887C1257.89 205.887 1253.49 205.417 1252.11 204.791C1249.91 203.695 1249.91 203.382 1252.53 200.407C1254.32 198.371 1256.93 197.275 1259.13 197.432C1265.18 197.901 1268.34 197.432 1270.82 195.239C1272.88 193.673 1272.19 193.36 1266.69 193.047C1260.23 192.734 1254.59 189.446 1260.37 189.446C1262.02 189.446 1263.67 188.819 1264.08 188.036C1264.9 186.627 1258.58 184.748 1252.39 184.748C1247.58 184.748 1246.06 182.243 1249.78 180.05C1253.49 177.858 1253.21 175.666 1249.09 174.413C1247.3 173.944 1244.96 172.378 1244.14 171.125C1242.63 169.246 1243.04 169.089 1246.34 170.029L1250.19 171.125L1245.79 164.862C1243.18 161.104 1240.7 155.153 1239.74 150.299L1238.09 142L1236.44 147.481ZM1348.79 265.39C1348.79 265.703 1347.69 266.799 1346.18 267.582C1344.39 268.678 1342.88 268.522 1341.09 266.956C1338.61 264.92 1338.89 264.764 1343.7 264.607C1346.45 264.607 1348.79 264.92 1348.79 265.39ZM1402.01 273.689C1398.57 278.073 1399.12 279.17 1404.49 278.23C1410.95 276.977 1410.54 279.17 1403.8 282.301C1397.47 285.12 1396.78 287.469 1401.6 289.817C1403.8 291.07 1404.62 292.479 1404.21 294.515C1403.25 298.273 1402.15 298.273 1398.71 294.672C1394.03 289.817 1387.98 281.362 1390.05 282.614C1391.56 283.554 1391.42 283.084 1389.77 280.735C1386.2 276.194 1386.75 275.098 1392.25 276.038C1396.51 276.821 1396.92 276.664 1396.23 273.846C1395.55 271.34 1396.1 270.871 1399.81 270.871C1403.94 270.871 1404.07 271.027 1402.01 273.689ZM1345.35 277.134C1344.94 277.917 1343.7 278.7 1342.6 278.7C1341.5 278.7 1340.26 277.917 1339.85 277.134C1339.3 276.194 1340.54 275.568 1342.6 275.568C1344.66 275.568 1345.9 276.194 1345.35 277.134ZM1275.77 280.109C1277.28 281.205 1277.14 281.832 1274.81 283.241C1271.78 285.12 1269.44 283.241 1271.09 280.266C1272.19 278.387 1273.29 278.387 1275.77 280.109ZM1339.44 286.842C1338.2 288.252 1337.38 288.252 1336.14 286.842C1334.9 285.433 1335.18 284.963 1337.79 284.963C1340.4 284.963 1340.68 285.433 1339.44 286.842ZM1149.39 293.419C1149.39 295.141 1146.78 295.768 1145.95 294.358C1145.54 293.576 1146.09 292.793 1147.19 292.793C1148.43 292.793 1149.39 293.106 1149.39 293.419ZM1137.01 299.056C1138.11 299.839 1138.52 300.935 1137.97 301.561C1137.42 302.188 1135.91 301.561 1134.67 300.152C1132.2 297.334 1133.57 296.551 1137.01 299.056ZM1157.36 316.281H1160.94L1158.05 318.629C1155.58 320.665 1154.48 320.665 1152.14 319.099C1148.84 316.75 1148.43 313.932 1151.59 315.341C1152.83 315.811 1155.44 316.281 1157.36 316.281Z" fill="#73915B"/>
<path d="M297.336 68.9728C296.451 71.1294 295.692 73.5131 295.692 74.3076C295.692 75.2157 293.669 78.7345 291.267 82.3667C286.842 88.9502 285.577 91.9014 288.359 89.4042C291.014 87.0205 291.773 87.9286 290.382 91.4474C289.623 93.377 287.221 96.3282 284.819 98.0308C282.29 99.8469 280.773 101.777 281.152 102.798C281.531 103.933 280.14 105.068 276.727 106.43C269.772 109.041 270.278 110.744 278.244 110.744C284.439 110.744 284.566 110.857 282.543 112.9C280.52 114.83 275.336 117.214 267.37 119.824C265.347 120.505 264.083 121.3 264.336 121.64C264.968 122.208 276.474 120.732 283.681 119.257L287.474 118.349L283.681 122.095C279.635 125.954 271.416 129.927 267.244 130.04C265.853 130.04 263.83 130.494 262.818 131.175C261.301 131.97 261.301 132.537 263.324 134.467C264.715 135.829 266.991 136.851 268.382 136.851C269.899 136.851 271.795 137.305 272.807 137.872C274.071 138.667 273.692 139.234 270.91 140.369C266.359 142.412 266.359 143.775 270.784 145.704C273.566 146.953 273.945 147.52 272.933 149.336C270.91 152.855 269.267 153.082 263.198 151.039L257.381 148.996L260.795 147.407C263.956 145.931 264.336 143.661 261.301 143.661C260.542 143.661 257.887 142.299 255.485 140.596C251.186 137.759 251.186 137.532 253.715 136.737C257.381 135.488 257.255 134.126 253.083 132.31C249.542 130.948 249.542 130.948 252.45 129.927C255.485 128.905 256.243 126.635 253.462 126.635C252.45 126.635 250.427 125.613 248.784 124.365L245.749 122.208L248.784 122.095H251.818L249.289 119.484C246.002 116.306 243.852 110.63 243.726 104.614C243.6 99.6199 243.22 100.414 241.956 108.701C241.577 111.652 240.312 114.83 239.301 115.738C238.289 116.646 237.657 118.122 237.783 118.916C238.036 119.711 236.266 120.846 234.117 121.413C231.841 122.095 229.944 123.003 229.944 123.457C229.944 124.365 231.967 124.819 234.117 124.478C235.887 124.251 235.002 126.521 232.852 127.656C230.703 128.791 230.703 128.791 232.852 128.905C238.163 128.905 233.864 132.31 228.3 132.31C225.645 132.424 225.645 132.424 227.921 134.013C229.186 134.807 229.818 136.056 229.312 136.737C228.933 137.418 229.438 137.986 230.703 137.986C232.347 137.986 232.473 138.326 231.209 139.688C230.324 140.596 228.68 141.391 227.542 141.391C226.404 141.504 223.875 142.185 221.726 142.98L217.933 144.569L221.473 145.818C223.496 146.499 224.887 147.861 224.887 149.223C224.887 151.72 220.461 155.012 217.047 155.012C213.254 155.012 214.519 157.055 219.197 158.531C224.507 160.233 224.634 161.028 220.335 162.73C216.289 164.433 213.76 163.298 208.07 157.055C201.243 149.336 201.243 149.109 206.679 149.336C209.461 149.45 213.634 149.45 216.036 149.336C219.956 149.223 220.208 149.109 217.553 148.201C216.036 147.634 214.013 146.612 213.128 145.931C212.369 145.25 209.588 143.661 207.185 142.185C203.139 139.802 193.277 129.473 193.277 127.429C193.277 126.975 195.932 128.337 199.22 130.608C205.794 135.148 212.369 137.191 217.933 136.624L221.726 136.283L216.921 134.126C210.852 131.402 210.093 130.267 213.381 128.224C217.427 125.613 216.542 123.797 210.599 122.435C207.691 121.64 203.645 119.938 201.748 118.576C198.461 116.419 198.335 115.965 200.105 114.262C203.013 111.425 202.633 108.474 199.472 108.474C196.438 108.474 192.013 106.544 192.013 105.182C192.013 104.614 193.277 103.933 194.794 103.593L197.576 102.912L194.668 100.074C192.518 98.0308 191.886 96.4417 192.518 94.3986C193.024 92.4689 192.392 89.8582 190.748 86.907C189.357 84.5234 188.219 81.1181 188.219 79.529C188.219 75.1022 186.07 76.2373 185.185 81.1181C184.806 83.6153 182.909 87.134 181.139 89.0637C178.484 92.0149 178.104 92.923 179.369 94.285C180.633 95.6471 180.254 96.3282 176.966 97.9173C174.817 99.0524 173.047 100.528 173.047 101.323C173.047 102.912 177.599 104.387 179.369 103.366C180.001 103.025 180.633 103.139 180.633 103.82C180.633 105.409 175.449 108.474 172.92 108.474C171.782 108.474 170.139 109.268 169.254 110.176C167.989 111.538 168.369 112.106 171.277 113.241C176.208 115.057 176.081 114.944 174.185 116.646C170.392 119.824 163.311 121.186 155.978 119.938C152.184 119.257 147.759 118.235 146.368 117.441C143.713 116.192 143.713 116.192 145.989 118.916C147.127 120.392 150.414 122.889 153.069 124.365C159.012 127.656 159.138 128.905 153.828 128.905L149.656 129.018L153.322 130.835C155.851 131.97 159.012 132.424 163.058 132.083C166.472 131.743 169.506 131.743 169.886 132.083C171.024 133.105 160.403 139.348 153.196 141.958C146.874 144.342 146.368 144.683 148.77 145.818C150.161 146.499 153.954 147.066 157.115 147.066C163.058 147.066 164.07 147.861 161.414 150.244C160.276 151.266 161.035 151.607 164.828 151.607H169.759L165.46 155.012C163.058 156.828 160.403 158.304 159.644 158.417C158.886 158.417 155.472 159.779 152.058 161.368C148.391 163.184 142.828 164.66 138.403 165.114L131.069 165.795L133.598 168.633C135.621 170.903 137.644 171.584 143.46 172.038L150.92 172.606L146.115 175.216C137.77 179.53 144.345 181.8 155.345 178.281C158.886 177.146 161.288 176.919 162.173 177.713C163.185 178.394 164.828 178.167 167.104 177.146C172.541 174.649 171.15 177.032 163.564 183.162C159.138 186.908 154.334 189.518 150.035 190.767C146.368 191.902 142.575 193.264 141.69 193.945C139.035 195.761 143.334 198.145 149.276 198.145C151.931 198.145 154.081 198.372 154.081 198.712C154.081 199.847 142.322 209.042 138.403 210.858C136.253 211.879 132.333 212.787 129.805 212.901C127.149 212.901 125 213.355 125 214.036C125 216.193 130.816 217.782 139.161 217.782C143.839 217.782 147.759 218.122 147.759 218.463C147.633 220.506 140.678 225.727 134.862 228.111L128.161 230.835L314.405 230.949C517.972 231.062 502.04 231.516 510.385 224.933C514.431 221.754 513.926 220.846 507.857 220.846C504.064 220.846 500.397 219.711 495.466 217.101L488.512 213.468L496.351 212.901C503.684 212.333 508.995 210.631 503.305 210.631C499.259 210.631 499.891 209.269 505.201 206.658C511.144 203.707 512.408 201.096 507.098 202.799C500.523 204.842 486.868 200.301 483.075 194.74C480.419 190.88 482.948 189.291 490.787 189.859L497.362 190.313L493.822 188.497C490.408 186.794 490.282 186.454 492.178 184.637C494.201 182.708 494.075 182.481 490.535 181.913C488.385 181.459 484.339 179.075 481.431 176.465L476.121 171.697L480.419 169.768C482.822 168.746 484.592 167.271 484.339 166.59C484.213 165.795 484.845 165.228 485.73 165.228C486.615 165.228 488.385 164.546 489.776 163.752C491.799 162.276 491.673 162.163 488.385 162.617C485.856 162.957 483.58 162.39 481.178 160.687C476.753 157.509 476.879 156.714 481.937 155.466L485.983 154.331L482.316 151.607C477.638 147.974 475.615 143.661 474.603 134.921C474.098 131.175 473.212 127.429 472.707 126.635C471.063 124.365 468.914 126.521 468.914 130.381C468.914 134.467 464.867 141.164 461.959 141.958C455.89 143.661 455.89 143.661 457.408 145.25C458.672 146.499 458.419 146.953 456.649 147.407C454.879 147.747 455.132 147.974 457.787 148.655C459.684 149.109 461.454 150.358 461.833 151.266C462.718 153.196 460.569 156.147 458.546 156.147C457.787 156.147 457.913 155.466 458.798 154.558C460.063 153.082 459.304 152.855 454.12 152.855C446.787 152.969 442.867 151.72 437.557 147.747C433.005 144.229 433.384 141.391 438.442 141.391C447.925 141.277 450.327 138.213 442.741 135.829C440.085 135.034 434.901 132.537 431.235 130.267L424.534 126.294L428.706 124.592C432.499 123.003 432.626 122.776 430.097 122.435C428.453 122.095 427.189 121.413 427.189 120.732C427.189 120.165 427.947 119.824 428.832 120.165C430.855 120.846 436.039 119.03 436.039 117.554C436.039 116.987 434.775 116.419 433.131 116.419C429.844 116.419 423.775 110.176 425.924 109.041C426.683 108.701 427.694 108.587 428.327 109.041C430.476 110.176 431.235 107.225 429.465 105.295C426.936 102.685 423.396 94.285 423.396 91.1068C423.396 89.6312 422.637 87.5881 421.752 86.453C420.235 84.6369 419.855 85.0909 418.338 90.7663C416.315 98.3713 412.269 104.728 408.223 106.544C404.303 108.36 403.545 110.744 406.832 110.744C411.51 110.744 409.74 112.673 402.66 115.284C398.866 116.646 395.453 118.462 395.073 119.37C394.694 120.278 393.05 120.959 391.533 121.073C389.636 121.186 390.521 121.64 393.935 122.435C401.016 124.251 401.522 124.932 396.591 126.521C383.441 130.948 382.05 133.105 391.533 134.24C397.223 134.921 399.751 137.759 395.579 138.78C391.912 139.688 393.303 141.958 397.349 141.731C399.119 141.618 400.637 141.958 400.637 142.412C400.637 143.775 395.326 147.747 390.901 149.79C386.096 151.947 385.464 152.061 385.464 150.358C385.464 149.79 387.234 148.655 389.257 148.088C393.303 146.726 394.441 144.796 391.154 144.796C387.993 144.796 383.567 141.731 379.395 136.397L375.349 131.402L378.51 130.721C382.556 129.813 382.556 128.451 378.51 126.862C375.222 125.5 372.188 120.505 373.579 118.576C373.958 118.008 373.832 114.603 373.326 111.084L372.441 104.728L370.165 110.29C368.774 113.354 367.762 117.214 367.762 119.03C367.762 121.64 367.13 122.322 363.716 122.889L359.797 123.57L362.578 125.613C365.234 127.656 365.234 127.656 362.831 128.791C361.441 129.473 358.532 130.04 356.257 130.04C352.337 130.04 352.211 130.154 354.613 131.743C357.015 133.332 357.015 133.332 354.486 133.445C352.084 133.559 352.084 133.559 354.234 134.694C355.498 135.375 358.027 135.602 359.797 135.261C364.349 134.126 362.326 136.397 356.257 139.234C350.567 141.731 346.141 142.299 340.578 141.05L336.785 140.142L340.199 143.207C342.728 145.477 345.383 146.499 350.693 147.18C354.613 147.634 358.153 148.315 358.532 148.655C359.544 149.563 353.854 153.536 349.555 154.898C346.394 156.033 346.015 155.92 346.647 153.99C347.153 151.947 346.9 151.947 342.98 153.423C337.164 155.579 330.21 155.352 321.486 152.742C312.888 150.017 309.095 147.52 315.67 148.769C320.095 149.563 334.256 148.315 331.222 147.293C330.21 147.066 327.429 145.591 325.026 144.115L320.601 141.391H325.405H330.21L327.808 139.007C326.543 137.645 326.038 136.283 326.67 136.056C327.429 135.942 329.957 134.58 332.36 133.332L336.785 130.835L328.566 128.337C319.589 125.727 312.635 122.662 311.624 121.073C311.244 120.505 313.267 119.711 316.302 119.37C322.75 118.462 327.302 115.965 327.302 113.241C327.302 111.652 326.038 111.311 320.601 111.311C317.061 111.311 313.014 110.971 311.75 110.517C309.727 109.722 309.727 109.495 312.129 107.338C313.773 105.863 316.175 105.068 318.198 105.182C323.762 105.522 326.67 105.182 328.946 103.593C330.842 102.458 330.21 102.231 325.153 102.004C319.21 101.777 314.026 99.3929 319.336 99.3929C320.854 99.3929 322.371 98.9389 322.75 98.3713C323.509 97.3498 317.693 95.9877 312.003 95.9877C307.578 95.9877 306.187 94.1715 309.601 92.5824C313.014 90.9933 312.762 89.4042 308.968 88.4961C307.325 88.1556 305.175 87.0205 304.417 86.1125C303.026 84.7504 303.405 84.6369 306.44 85.3179L309.98 86.1125L305.934 81.5722C303.532 78.848 301.256 74.5347 300.371 71.0159L298.853 65L297.336 68.9728ZM400.637 154.444C400.637 154.671 399.625 155.466 398.234 156.033C396.591 156.828 395.2 156.714 393.556 155.579C391.28 154.104 391.533 153.99 395.958 153.877C398.487 153.877 400.637 154.104 400.637 154.444ZM449.568 160.46C446.407 163.638 446.913 164.433 451.844 163.752C457.787 162.844 457.408 164.433 451.212 166.703C445.396 168.746 444.764 170.449 449.189 172.152C451.212 173.06 451.971 174.081 451.591 175.557C450.706 178.281 449.695 178.281 446.534 175.67C442.235 172.152 436.672 166.022 438.568 166.93C439.959 167.611 439.833 167.271 438.315 165.568C435.028 162.276 435.534 161.482 440.591 162.163C444.511 162.73 444.89 162.617 444.258 160.574C443.626 158.758 444.132 158.417 447.545 158.417C451.339 158.417 451.465 158.531 449.568 160.46ZM397.476 162.957C397.096 163.525 395.958 164.092 394.947 164.092C393.935 164.092 392.797 163.525 392.418 162.957C391.912 162.276 393.05 161.822 394.947 161.822C396.843 161.822 397.981 162.276 397.476 162.957ZM333.498 165.114C334.888 165.909 334.762 166.363 332.613 167.384C329.831 168.746 327.681 167.384 329.199 165.228C330.21 163.865 331.222 163.865 333.498 165.114ZM392.039 169.995C390.901 171.016 390.142 171.016 389.004 169.995C387.866 168.973 388.119 168.633 390.521 168.633C392.924 168.633 393.177 168.973 392.039 169.995ZM217.3 174.762C217.3 176.011 214.898 176.465 214.139 175.443C213.76 174.876 214.266 174.308 215.277 174.308C216.415 174.308 217.3 174.535 217.3 174.762ZM205.921 178.848C206.932 179.416 207.312 180.211 206.806 180.665C206.3 181.119 204.909 180.665 203.771 179.643C201.495 177.6 202.76 177.032 205.921 178.848ZM224.634 191.334H227.921L225.266 193.037C222.99 194.513 221.979 194.513 219.829 193.377C216.795 191.675 216.415 189.632 219.323 190.653C220.461 190.994 222.864 191.334 224.634 191.334Z" fill="#73915B"/>
<path d="M37.2481 2.08304C36.7864 3.23805 36.4017 4.88808 36.4017 5.76808C36.4017 6.6481 35.7862 8.13312 35.0167 9.06813C34.2473 10.0031 33.0932 11.8732 32.5546 13.1382C31.939 14.4582 30.631 15.9432 29.6307 16.4382C28.6304 16.9882 26.9377 17.9232 25.7836 18.5833L23.7061 19.8483L25.4758 20.1783L27.2455 20.5633L25.3988 21.9933C24.3216 22.7633 23.0905 23.9733 22.6289 24.6883C21.6286 26.0084 21.9364 26.1734 25.2449 26.5584C26.6299 26.7234 26.553 26.8884 24.3216 28.5934C22.9367 29.5834 21.6286 30.8484 21.3978 31.3434C21.167 31.8384 19.6281 32.8834 17.9353 33.7085C16.2426 34.5335 14.8576 35.5785 14.8576 36.0185C14.8576 36.8985 19.3973 37.6685 21.4747 37.0635C22.5519 36.7885 22.398 37.1185 20.7822 38.6035C18.4739 40.8036 14.6268 43.0586 9.31771 45.4236C5.3936 47.1836 4.93195 48.2837 8.24051 48.0087C11.2413 47.7887 10.7796 49.2737 7.31718 50.8687C0.315355 54.0037 1.70033 55.3238 9.70242 53.1237C15.627 51.5837 15.627 51.5287 15.627 52.2987C15.627 53.0137 4.08557 59.4488 2.77754 59.4488C2.16199 59.4488 1.77728 59.8338 1.93116 60.3838C2.08505 61.0988 3.16225 61.4838 5.23972 61.6488C8.70216 61.9788 9.62548 63.2439 7.39413 64.6739C4.47029 66.5439 -0.223248 68.9089 -1.83905 69.4039C-4.37818 70.0639 -4.07041 71.549 -1.45434 71.604C-0.30019 71.659 1.4695 71.824 2.39282 72.044L4.23946 72.374L2.54671 73.859C1.70033 74.684 -0.30019 75.784 -1.83905 76.334C-4.37818 77.159 -4.45512 77.2691 -3.14709 77.9841C-1.68517 78.7541 0.546185 78.6991 3.70086 77.9291C4.855 77.5991 4.62417 77.8741 3.08531 78.8091C-5.68621 84.0891 -7.53285 85.1342 -9.14866 85.9592L-10.9184 86.8392L-8.76394 87.4442C-7.14813 87.8842 -5.8401 87.8292 -3.14709 87.1692C-1.22351 86.7292 1.62339 86.3992 3.16225 86.5092L6.00915 86.6742L3.2392 87.9392C1.4695 88.7092 -0.0693607 89.9742 -0.76185 91.2392C-2.22377 93.7693 -6.76342 96.7943 -9.84115 97.2343C-13.9961 97.7843 -13.3805 98.7743 -8.22534 99.9294C-6.14787 100.369 -5.07067 100.369 -3.37792 99.7644C-2.14683 99.3243 0.00758171 99.0493 1.4695 99.1593L4.16251 99.3243L-3.07014 103.064C-7.07119 105.099 -11.6878 107.134 -13.3036 107.629C-16.0735 108.454 -16.1505 108.564 -14.7655 109.279C-13.9961 109.719 -12.3803 110.049 -11.1492 110.049C-9.99503 110.049 -8.99477 110.269 -8.99477 110.489C-8.99477 111.7 -18.0741 115.605 -22.0751 116.1L-24.7681 116.43L-22.0751 117.64C-18.9204 119.07 -16.6891 119.18 -13.5344 118.025C-11.5339 117.255 -11.2261 117.255 -10.8414 118.025C-10.2259 119.07 -7.99451 119.07 -5.07067 117.97C-1.53128 116.705 -0.99268 117.255 -3.53181 119.73C-5.91704 122.095 -12.4572 124.9 -15.6888 124.9C-16.9199 124.9 -17.4585 125.23 -17.4585 125.945C-17.4585 127.155 -19.459 127.65 -24.922 127.65C-27.1534 127.65 -29 127.87 -29 128.09C-29 129.025 -21.6135 131.39 -17.6894 131.775C-13.4575 132.16 -12.8419 132.545 -14.7655 133.7C-15.3811 134.085 -15.9197 134.745 -15.9197 135.185C-15.9197 135.845 -15.0733 135.9 -11.457 135.625C-6.53259 135.185 -2.37766 134.58 -0.223248 133.975C1.00784 133.59 1.08479 133.645 0.315355 134.69C-0.30019 135.515 -0.30019 135.955 0.315355 136.175C1.08479 136.56 8.77911 136.065 10.7027 135.515C11.3952 135.35 11.626 135.735 11.5491 136.835L11.3952 138.375L16.6273 138.265C20.7053 138.155 21.7825 138.32 21.7825 138.925C21.7825 139.97 24.3216 139.97 29.1691 138.925C31.2465 138.485 33.0162 138.1 33.0162 138.1C33.0932 138.1 33.0162 140.3 32.8623 143.05L32.6315 148H38.8639H45.0963L44.5577 142.995C44.096 138.265 44.096 137.99 45.4041 138.375C47.0968 138.87 52.4828 139.695 54.3295 139.75C55.022 139.75 55.6375 139.365 55.6375 138.925C55.6375 138.32 56.7147 138.155 60.8696 138.265L66.0248 138.375L65.8709 136.835C65.794 135.68 66.0248 135.35 66.7943 135.57C68.8717 136.12 75.5658 136.615 76.7969 136.23C77.7971 135.955 77.8741 135.68 77.1047 134.745C76.3352 133.645 76.4122 133.59 77.6433 133.975C79.7977 134.58 83.9526 135.185 88.9539 135.625C92.4933 135.9 93.3397 135.845 93.3397 135.185C93.3397 134.745 92.8011 134.085 92.1855 133.7C90.2619 132.545 90.8775 132.16 95.1094 131.775C99.4182 131.335 103.958 129.905 105.574 128.53C106.497 127.76 106.112 127.65 102.496 127.65C96.8791 127.65 94.8785 127.21 94.8785 125.945C94.8785 125.23 94.3399 124.9 93.1088 124.9C89.8772 124.9 83.3371 122.095 80.9518 119.73C78.4127 117.255 78.9513 116.705 82.4907 117.97C85.4145 119.07 87.6459 119.07 88.2614 118.025C88.6461 117.255 88.9539 117.255 90.9544 118.025C93.8783 119.07 95.8788 119.07 98.7257 118.025C101.419 117.035 101.726 116.1 99.4182 116.1C98.4949 116.1 95.8018 115.33 93.4166 114.34C86.4148 111.535 84.6451 110.049 88.2614 110.049C92.8011 110.049 94.0322 108.509 90.2619 107.464C89.0309 107.134 84.6451 105.154 80.5671 103.064L73.2575 99.3243L75.9505 99.1593C77.4124 99.0493 79.6438 99.3793 80.8749 99.8194C82.6446 100.479 83.5679 100.534 85.7223 99.9844C90.8775 98.6643 91.3391 97.7843 87.2612 97.2343C84.1834 96.7943 79.6438 93.7693 78.1819 91.2392C77.4894 89.9742 75.9505 88.7092 74.1808 87.9392L71.4109 86.6742L74.2578 86.5092C75.7966 86.3992 78.6435 86.7292 80.4902 87.1692C84.1834 88.0492 87.1842 87.8292 87.1842 86.6192C87.1842 86.1792 86.8764 85.8492 86.4917 85.8492C86.107 85.8492 83.7218 84.5291 81.1057 82.9341C78.5666 81.3941 75.4889 79.5241 74.3347 78.8091C72.7189 77.8741 72.565 77.5991 73.7192 77.9291C76.7969 78.6991 79.1052 78.7541 80.4902 78.0391C81.7982 77.3241 81.6443 77.159 78.4896 76.004C76.5661 75.289 74.7194 74.189 74.2578 73.474C73.4883 72.264 73.5653 72.154 77.2585 71.824C81.1057 71.439 82.4137 70.229 79.7207 69.5139C77.8741 69.0739 70.8723 65.5539 69.7181 64.4539C67.7176 62.7488 68.487 61.7038 71.9495 61.5388C75.7197 61.3738 77.0277 59.8338 73.95 59.2838C71.4878 58.7888 61.1005 52.6287 61.8699 52.0237C62.1777 51.8587 64.7168 52.3537 67.6406 53.1237C75.7197 55.3238 77.1047 54.0037 70.1028 50.8687C66.6404 49.2737 66.1787 47.7887 69.1795 48.0087C72.4881 48.2837 72.0264 47.1836 68.1023 45.4786C63.0241 43.1686 58.1766 40.3085 56.33 38.4935L54.7911 36.9535L56.5608 37.0085C63.3318 37.2835 64.409 36.1285 59.4847 33.8185C57.7919 32.9935 56.4069 32.1134 56.4069 31.8934C56.4069 31.6184 55.1758 30.4634 53.7139 29.2534C50.4823 26.7234 50.4054 26.4484 52.9445 26.4484C55.6375 26.4484 55.4836 24.7983 52.5598 22.5983C49.9437 20.5633 49.7898 20.3983 51.4056 20.3983C53.56 20.3983 52.5598 18.8033 49.3282 17.2632C46.789 16.0532 45.7888 15.0632 44.7116 12.8082C43.9421 11.2132 42.788 9.34312 42.2494 8.68312C41.6339 8.02312 40.9414 6.15309 40.7105 4.55807C39.7872 -0.501999 38.5561 -1.38202 37.2481 2.08304Z" fill="#73915B"/>
<path d="M1416.98 74.4245C1417.79 75.2016 1417.68 75.7586 1416.65 75.9917C1416.34 76.0565 1416.32 76.0824 1416.58 76.2637C1416.81 76.4321 1416.9 76.4321 1417.41 76.2248C1417.95 76.0046 1417.97 76.0046 1418.42 76.3025C1418.68 76.4839 1418.9 76.6652 1418.9 76.717C1418.9 76.7688 1418.99 76.976 1419.09 77.1833L1419.31 77.5459L1419.44 77.2221C1419.66 76.704 1419.64 75.9917 1419.4 75.8233C1419.22 75.6938 1419.22 75.6031 1419.4 75.4089C1419.6 75.1757 1419.58 75.1498 1419.17 75.1498C1418.84 75.1498 1418.71 75.0851 1418.71 74.8908C1418.71 74.7095 1418.44 74.5411 1417.81 74.308C1416.61 73.8676 1416.41 73.8935 1416.98 74.4245Z" fill="#73915B"/>
<path d="M1414.69 81.807C1414.51 81.9365 1414.37 82.0789 1414.37 82.1437C1414.37 82.2085 1414.21 82.325 1414.01 82.4027C1413.72 82.5193 1413.57 82.4804 1413.25 82.2085C1412.78 81.8199 1412.32 81.794 1411.67 82.1437C1411.11 82.4157 1409.75 83.5554 1409.88 83.6331C1409.91 83.672 1410.37 83.5813 1410.89 83.4389L1411.82 83.1798L1412.74 83.5295C1413.77 83.9051 1413.84 84.0865 1413.28 84.8506C1412.97 85.291 1412.96 85.3687 1413.21 85.4334C1413.84 85.6018 1414.01 85.5241 1414.01 85.019C1414.01 84.3066 1414.3 84.1124 1415.24 84.1771C1415.82 84.2289 1416.22 84.3714 1416.9 84.8247C1417.41 85.1485 1417.86 85.3946 1417.9 85.3687C1418.03 85.278 1416.9 83.128 1416.61 82.8949C1416.41 82.7395 1416.16 82.7006 1415.73 82.7524L1415.11 82.8172L1415.06 82.1955C1415 81.5997 1414.98 81.5868 1414.69 81.807Z" fill="#73915B"/>
<path d="M1396.35 83.7629C1395.96 83.8666 1395.11 84.1515 1394.47 84.3846C1393.28 84.8509 1393.24 85.084 1394.38 84.9415C1395.21 84.825 1396.39 85.0711 1396.54 85.3689C1396.59 85.5114 1396.84 85.7057 1397.08 85.8223C1397.75 86.1331 1397.64 86.5087 1396.7 87.1822L1395.87 87.765L1396.26 87.9981C1396.83 88.3219 1397.11 88.2831 1397.22 87.8557C1397.28 87.6484 1397.53 87.3117 1397.77 87.1174L1398.22 86.7418L1399.09 87.0786C1399.87 87.3765 1400.07 87.5578 1400.7 88.4385L1401.42 89.4487L1401.57 88.0499C1401.79 86.1979 1401.68 85.8093 1400.92 85.7057C1400.03 85.5632 1399.88 85.4337 1400.1 84.9545C1400.21 84.7214 1400.37 84.4882 1400.45 84.4105C1400.54 84.3458 1400.61 84.2421 1400.61 84.1903C1400.61 83.9961 1400.28 84.0867 1399.72 84.4235C1399 84.8638 1398.44 84.7991 1398.18 84.2421C1397.98 83.8277 1397.62 83.5687 1397.26 83.5816C1397.17 83.5816 1396.75 83.6593 1396.35 83.7629Z" fill="#73915B"/>
<path d="M1391.23 88.5163C1391.1 88.607 1391.01 88.7624 1391.01 88.879C1391.01 89.1769 1390.49 89.6561 1390.18 89.6561C1390.02 89.6561 1389.62 89.5007 1389.29 89.3193C1388.53 88.9049 1388.17 88.9696 1387.27 89.7079C1386.56 90.2778 1385.15 91.9874 1385.36 91.9874C1385.44 91.9874 1385.85 91.8061 1386.31 91.5988C1387.54 91.0031 1388.17 90.8994 1388.82 91.1326C1389.11 91.2491 1389.56 91.3398 1389.8 91.3398C1390.49 91.3398 1390.78 91.8579 1390.49 92.6091C1390.11 93.5545 1390.13 93.7359 1390.65 93.7747C1391.41 93.8265 1391.61 93.6452 1391.41 93.1142C1391.32 92.8681 1391.28 92.4666 1391.36 92.2205C1391.48 91.8061 1391.5 91.7931 1392.53 91.7284C1393.75 91.6506 1394.27 91.7802 1395.56 92.4536C1396.05 92.7127 1396.52 92.894 1396.61 92.8681C1396.81 92.8163 1394.76 90.213 1394.18 89.7986C1393.8 89.5136 1393.69 89.5007 1393.28 89.6302C1392.24 89.9669 1391.74 89.682 1391.74 88.7365C1391.74 88.335 1391.57 88.2703 1391.23 88.5163Z" fill="#73915B"/>
<path d="M1401.42 90.666L1400.52 91.0027L1401.37 91.0804C1401.97 91.1322 1402.31 91.2488 1402.58 91.469C1403.07 91.8964 1403.05 92.1036 1402.49 92.5181C1402.04 92.8548 1402.04 92.8807 1402.37 93.0102C1402.67 93.1268 1402.76 93.075 1403.02 92.6864C1403.18 92.4533 1403.38 92.2461 1403.45 92.2461C1403.92 92.2461 1404.85 92.8419 1405.08 93.2822C1405.24 93.5672 1405.42 93.8003 1405.48 93.8003C1405.62 93.8003 1405.71 92.259 1405.59 91.8964C1405.53 91.728 1405.33 91.5985 1405.08 91.5726C1404.76 91.5467 1404.68 91.469 1404.74 91.1063C1404.77 90.7048 1404.56 90.5494 1404.32 90.8214C1404.1 91.0804 1403.54 90.9509 1403.43 90.6271C1403.29 90.1997 1402.62 90.1997 1401.42 90.666Z" fill="#73915B"/>
<path d="M1366.93 91.7671C1366.08 92.0261 1362.86 93.2048 1362.59 93.3731C1362.35 93.5285 1363.19 93.671 1364.34 93.671C1365.49 93.671 1365.65 93.6969 1365.76 93.943C1365.83 94.0855 1366.08 94.2538 1366.32 94.3186L1366.77 94.4481L1366.39 94.9532C1366.19 95.2382 1365.67 95.6915 1365.21 95.9635C1364.02 96.6629 1364.13 97.168 1365.47 97.168C1365.9 97.168 1366.01 97.0903 1366.17 96.6629C1366.43 96.093 1367.73 95.1475 1368.49 95.018C1369.21 94.8885 1369.5 95.0827 1369.98 96.0153C1370.21 96.4686 1370.46 96.896 1370.55 96.9607C1370.77 97.1162 1371.08 96.2484 1371.32 94.8367C1371.55 93.3602 1371.39 92.8939 1370.65 92.8939C1370.23 92.8939 1370.19 92.8551 1370.3 92.596C1370.37 92.4406 1370.57 92.1686 1370.75 92.0002C1371.21 91.5858 1371.19 91.4692 1370.65 91.4692C1370.36 91.4692 1369.94 91.6505 1369.54 91.9355C1368.82 92.4406 1368.33 92.4665 1368.24 91.9873C1368.13 91.4822 1368 91.4563 1366.93 91.7671Z" fill="#73915B"/>
<path d="M1344.16 93.3857C1343.74 93.5799 1344.1 93.8649 1345.81 94.6808C1347.27 95.3932 1347.56 95.5875 1347.98 96.2091C1348.29 96.6365 1348.68 97.0121 1349.01 97.1417C1349.64 97.4007 1349.66 97.4266 1349.19 98.0612C1348.79 98.6182 1348.03 99.1362 1347.02 99.4989C1346.19 99.8097 1346.02 100.082 1346.46 100.393C1346.82 100.652 1348.14 100.872 1348.45 100.742C1348.54 100.69 1348.88 100.341 1349.19 99.9522C1350.11 98.7865 1350.82 98.5923 1352.05 99.1621C1352.41 99.3435 1352.97 99.5248 1353.26 99.5766C1354.01 99.6931 1354.55 100.082 1355.18 100.937C1355.76 101.714 1356.7 102.452 1356.92 102.309C1357.12 102.154 1356.98 101.079 1356.6 99.7579C1355.93 97.4914 1355.74 97.2582 1354.57 97.0251C1353.86 96.8956 1353.86 96.8826 1353.95 96.3646C1354.01 96.0667 1354.22 95.6652 1354.42 95.4709C1354.64 95.2637 1354.8 95.0435 1354.8 94.9658C1354.8 94.7456 1354.04 94.8233 1353.64 95.0953C1353.43 95.2248 1352.96 95.432 1352.59 95.5357C1351.78 95.7817 1351.54 95.6263 1351.4 94.7715C1351.29 94.0333 1351.15 93.9815 1348.68 93.6706C1346.06 93.3598 1344.45 93.2562 1344.16 93.3857Z" fill="#73915B"/>
<path d="M1374.25 93.8132C1374.14 93.9427 1374.19 94.0075 1375.28 94.9659C1375.66 95.3027 1375.99 95.7689 1376.06 96.0668C1376.15 96.3518 1376.33 96.7403 1376.49 96.9346C1376.73 97.2325 1376.75 97.3102 1376.51 97.5045C1376.2 97.7764 1374.94 98.1909 1374.43 98.2038C1374.21 98.2038 1373.94 98.2945 1373.81 98.3981C1373.63 98.5535 1373.69 98.6442 1374.1 98.9162C1374.76 99.3436 1374.99 99.3306 1375.82 98.7867C1376.69 98.2298 1377.29 98.2038 1377.81 98.709C1378.01 98.9162 1378.39 99.1493 1378.63 99.24C1379.06 99.4213 1379.43 99.9782 1379.43 100.496C1379.43 100.846 1379.9 101.571 1380.13 101.571C1380.33 101.571 1380.64 100.38 1380.8 99.0975L1380.91 98.1132L1380.33 97.7894C1379.82 97.5045 1379.77 97.4267 1379.95 97.1936C1380.06 97.0511 1380.37 96.8051 1380.62 96.6626C1381.04 96.4295 1381.06 96.3777 1380.78 96.3129C1380.62 96.2611 1380.17 96.2999 1379.77 96.3777C1379.37 96.4683 1378.97 96.4942 1378.86 96.4554C1378.77 96.4036 1378.7 96.1057 1378.74 95.7689L1378.79 95.1861L1377.34 94.6292C1375.59 93.9427 1374.41 93.6449 1374.25 93.8132Z" fill="#73915B"/>
<path d="M1404.52 102.18C1403.89 102.517 1403.81 102.517 1403.6 102.31C1403.47 102.193 1403.29 102.09 1403.18 102.09C1403 102.09 1400.74 103.916 1400.84 103.981C1400.86 103.993 1401.3 103.942 1401.82 103.864C1402.55 103.76 1402.82 103.76 1403.04 103.89C1403.49 104.162 1403.4 104.343 1402.47 105.068C1401.66 105.716 1401.64 105.755 1401.97 105.923C1402.47 106.195 1402.64 106.105 1403.18 105.302C1403.63 104.615 1404.25 104.162 1404.68 104.162C1404.79 104.162 1405.12 104.512 1405.41 104.939C1406.15 106.066 1406.33 106.118 1406.48 105.302C1406.64 104.291 1406.6 103.605 1406.38 103.139C1406.22 102.802 1406.09 102.737 1405.71 102.763C1405.26 102.802 1405.24 102.776 1405.3 102.31C1405.32 102.051 1405.32 101.831 1405.28 101.831C1405.24 101.831 1404.92 101.986 1404.52 102.18Z" fill="#73915B"/>
<path d="M1390.09 102.919C1390.2 103.022 1390.54 103.165 1390.81 103.255C1391.1 103.333 1391.59 103.631 1391.9 103.916C1392.55 104.486 1392.5 104.719 1391.63 105.172C1391.09 105.444 1391.18 105.716 1391.79 105.716C1392.05 105.716 1392.3 105.574 1392.5 105.328C1392.66 105.108 1392.91 104.939 1393.04 104.939C1393.69 104.952 1394.67 105.315 1395.03 105.716C1395.63 106.338 1395.97 106.39 1395.81 105.833C1395.54 104.926 1395.07 104.227 1394.67 104.097C1394.24 103.955 1394.18 103.761 1394.45 103.372C1394.69 103.074 1394.51 103.061 1394.02 103.32C1393.51 103.592 1393.19 103.566 1393.19 103.255C1393.19 102.893 1392.53 102.737 1391.07 102.737C1390.07 102.737 1389.91 102.763 1390.09 102.919Z" fill="#73915B"/>
<path d="M1362.34 110.793C1362.52 110.962 1362.84 111.195 1363.04 111.311C1363.4 111.531 1363.4 111.544 1362.86 111.544L1362.32 111.557L1362.95 111.933C1363.29 112.14 1363.48 112.321 1363.37 112.321C1363.04 112.321 1363.08 112.71 1363.4 112.71C1363.55 112.71 1363.67 112.801 1363.67 112.904C1363.67 113.008 1363.86 113.163 1364.09 113.241C1364.31 113.319 1364.63 113.5 1364.82 113.63C1365 113.772 1365.29 113.876 1365.47 113.876C1365.65 113.876 1366.25 114.109 1366.83 114.394C1368.15 115.054 1368.69 115.249 1369.47 115.339C1370.1 115.404 1371.24 115.3 1371.88 115.106C1372.17 115.015 1372.2 115.054 1372.15 115.378C1372.09 115.702 1371.89 115.818 1370.74 116.246C1369.27 116.777 1368.98 116.984 1369.74 116.984C1370.14 116.984 1370.17 117.023 1370.01 117.23C1369.74 117.593 1369.78 117.658 1370.19 117.567C1370.52 117.489 1370.55 117.528 1370.45 117.813C1370.32 118.176 1370.52 118.253 1370.88 117.994C1371.04 117.878 1371.1 117.917 1371.1 118.189C1371.1 118.564 1371.26 118.629 1371.59 118.396C1371.73 118.292 1371.82 118.331 1371.91 118.525C1372.06 118.849 1372.29 118.875 1372.44 118.577C1372.55 118.396 1372.58 118.396 1372.82 118.616C1373.05 118.849 1373.07 118.849 1373.2 118.629C1373.31 118.409 1373.32 118.409 1373.67 118.629C1373.99 118.836 1374.01 118.836 1374.12 118.564C1374.19 118.331 1374.27 118.305 1374.48 118.435C1374.65 118.525 1374.79 118.538 1374.86 118.461C1374.94 118.396 1375.15 118.279 1375.35 118.189C1375.55 118.111 1375.7 117.981 1375.68 117.917C1375.66 117.839 1375.84 117.748 1376.08 117.709C1376.33 117.658 1376.53 117.541 1376.53 117.45C1376.53 117.243 1375.57 116.608 1374.74 116.259C1374.07 115.974 1374.01 115.611 1374.57 115.106C1374.9 114.808 1374.97 114.782 1375.12 114.964C1375.41 115.326 1375.99 115.184 1376.75 114.588C1377.16 114.264 1377.58 114.005 1377.71 114.005C1377.81 114.005 1378.1 113.863 1378.34 113.694C1378.56 113.513 1378.97 113.332 1379.26 113.293C1379.55 113.241 1379.79 113.15 1379.79 113.086C1379.79 113.008 1380.02 112.878 1380.31 112.801C1380.8 112.645 1381.65 112.037 1382.65 111.104C1383.25 110.534 1383.12 110.431 1382.4 110.897C1381.51 111.454 1381.07 111.544 1379.43 111.544C1378.09 111.544 1377.94 111.57 1377.36 111.933C1376.46 112.516 1375.17 112.891 1374.72 112.71C1374.3 112.542 1374.09 112.062 1374.23 111.557C1374.3 111.285 1374.27 111.156 1374.07 111.104C1373.47 110.936 1373.25 111.052 1372.82 111.739C1372.58 112.127 1372.24 112.49 1372.08 112.542C1371.66 112.658 1369.74 112.36 1368.91 112.049C1368.36 111.855 1368.11 111.829 1367.75 111.933C1366.55 112.257 1364.82 111.868 1363.1 110.884C1362.3 110.431 1361.85 110.379 1362.34 110.793Z" fill="#73915B"/>
<path d="M1351.54 119.043C1351.63 119.186 1351.82 119.341 1351.91 119.38C1352 119.419 1352.16 119.561 1352.25 119.691C1352.41 119.885 1352.36 119.911 1351.87 119.859L1351.29 119.794L1351.69 120.274C1352.2 120.869 1352.18 120.895 1351.63 120.792C1351.09 120.701 1351.06 120.869 1351.54 121.193C1351.98 121.478 1352.02 121.647 1351.62 121.647C1351.4 121.647 1351.35 121.711 1351.45 121.931C1351.53 122.1 1351.58 122.424 1351.56 122.657C1351.54 122.903 1351.76 123.382 1352.09 123.809C1352.38 124.211 1352.63 124.664 1352.63 124.833C1352.63 124.988 1352.7 125.273 1352.81 125.467C1352.97 125.778 1352.94 125.778 1351.89 125.273C1350.19 124.444 1348.2 123.809 1347.05 123.745C1346.28 123.693 1346.08 123.719 1346.15 123.861C1346.19 123.965 1346.51 124.107 1346.84 124.185C1347.54 124.353 1347.78 124.625 1347.22 124.625C1346.64 124.625 1346.76 124.859 1347.47 125.105C1347.92 125.26 1348.09 125.39 1348 125.519C1347.94 125.636 1347.85 125.804 1347.8 125.895C1347.74 125.985 1348.18 126.4 1348.76 126.814C1349.35 127.229 1350.02 127.721 1350.26 127.902C1350.51 128.122 1351.07 128.33 1351.71 128.459C1353.55 128.822 1353.52 128.796 1352.87 129.262C1352.3 129.677 1352.29 129.677 1350.37 129.677C1348.83 129.677 1348.43 129.715 1348.36 129.871C1348.29 129.974 1348.34 130.156 1348.47 130.272C1348.65 130.415 1348.65 130.505 1348.5 130.609C1348.16 130.855 1348.25 131.244 1348.67 131.321C1348.96 131.386 1349.01 131.464 1348.92 131.762C1348.83 132.06 1348.88 132.163 1349.32 132.345C1349.59 132.474 1350.13 132.785 1350.51 133.031C1351.45 133.666 1351.56 133.601 1353.54 131.296C1354.19 130.518 1355.11 130.078 1356.07 130.065C1357.59 130.052 1358.77 129.456 1359.67 128.265C1360.27 127.462 1361.54 126.555 1362.55 126.206L1363.13 125.998L1362.01 125.7C1360.76 125.364 1360.4 125.39 1359.2 125.972C1358.84 126.154 1358.48 126.257 1358.41 126.206C1358.33 126.154 1358.12 125.7 1357.88 125.208C1357.37 124.056 1356.49 122.683 1355.64 121.737C1354.77 120.753 1352.14 118.797 1351.69 118.797C1351.42 118.797 1351.38 118.836 1351.54 119.043Z" fill="#73915B"/>
</svg>
