<svg width="55" height="57" viewBox="0 0 55 57" fill="none" xmlns="http://www.w3.org/2000/svg">
<path d="M25.5706 0.0782479C23.0978 0.421998 20.7581 1.38672 18.7177 2.91696C15.7792 5.1347 13.8165 8.29498 13.129 11.8988L12.9294 12.9301H8.68246H4.44657L4.33569 13.3403C4.26915 13.5732 3.44859 16.8666 2.49496 20.6589C0.864919 27.2345 0.77621 27.6115 0.77621 28.6428C0.77621 30.5168 1.25302 32.0137 2.15121 33.0782L2.5504 33.5329V44.2446V54.9563H1.2752H0V55.8434V56.7305H27.5H55V55.8434V54.9563H53.7248H52.4496V50.299V45.6418H51.6179H50.7863V46.8615V48.0813H43.0242H35.2621V43.3131V38.545L43.002 38.5672L50.7308 38.6004L50.7641 41.2285L50.7863 43.8676H51.6179H52.4496V38.7002V33.5329L52.8155 33.0782C53.7913 31.8585 54.1129 30.8938 54.1905 29.0087L54.246 27.6226L52.5161 20.6922C51.5514 16.8776 50.7308 13.5732 50.6643 13.3403L50.5534 12.9301H46.3175H42.0706L41.871 11.8988C41.3054 8.92704 39.8306 6.17704 37.6683 4.08127C37.2137 3.64881 36.7923 3.28289 36.748 3.28289C36.6482 3.29397 35.7056 4.42502 35.7056 4.53591C35.7056 4.56918 36.0383 4.91293 36.4375 5.30103C38.0675 6.86454 39.4204 9.14881 39.9859 11.3333C40.374 12.7859 40.4738 15.2587 40.2077 16.7557C39.5978 20.2486 37.6018 23.3313 34.6522 25.3051C34.1643 25.6377 33.6986 25.9039 33.621 25.9039C33.5101 25.9039 33.4879 25.2053 33.5101 22.5551L33.5433 19.2174L34.131 19.0178C36.005 18.3857 36.9254 16.7557 36.9254 14.0944C36.9254 9.66998 34.0978 6.68712 31.2369 8.09539C30.1724 8.61655 29.2853 9.81414 28.753 11.4331C28.376 12.6085 28.2762 14.7153 28.5423 15.8575C28.9083 17.421 29.9284 18.6407 31.1704 19.0067L31.8246 19.1952V22.9875V26.7799L31.1925 26.9573C30.0504 27.2899 28.9083 27.4452 27.5554 27.4563C26.0696 27.4563 25.1603 27.3343 23.9849 26.9905L23.1754 26.7577V22.4553V18.1528L23.5968 18.0863C25.127 17.8424 26.1583 17.044 26.502 15.8242C26.5685 15.6024 26.6129 13.9502 26.6129 12.0097V8.60547H25.7812H24.9496V9.88067V11.1559H24.0625H23.1754V9.88067V8.60547H22.3437H21.5121V9.88067V11.1559H20.625H19.7379V9.88067V8.60547H18.9062H18.0746V12.1317V15.669L18.4183 16.3565C18.9395 17.3877 19.6603 17.8535 21.1018 18.0863L21.5121 18.1528V22.0228C21.5121 25.05 21.4788 25.9039 21.379 25.9039C21.0685 25.9039 19.2944 24.5843 18.3962 23.6861C16.7883 22.0893 15.6129 20.0712 15.0141 17.8645C14.7258 16.8333 14.7036 16.6004 14.7036 14.5934C14.7036 12.5863 14.7258 12.3535 15.003 11.3222C16.2117 6.85345 19.7712 3.30506 24.251 2.0853C25.249 1.81918 25.504 1.797 27.5 1.797C29.496 1.797 29.751 1.81918 30.749 2.09639C31.5806 2.31817 33.5101 3.13873 34.2641 3.58228C34.3306 3.62664 35.1512 2.32926 35.1512 2.1851C35.1512 2.01877 33.255 1.09841 32.2016 0.743571C31.6583 0.566151 30.8155 0.333288 30.3276 0.23349C29.2742 0.0117157 26.6462 -0.076994 25.5706 0.0782479ZM33.3548 9.6478C34.4859 10.2355 35.373 12.6085 35.2288 14.5934C35.0736 16.5893 34.2641 17.5097 32.6784 17.4986C31.869 17.4875 31.4365 17.3545 31.0151 16.9442C29.6845 15.6912 29.8065 12.1982 31.2369 10.291C31.7913 9.54801 32.6673 9.29297 33.3548 9.6478ZM24.9496 14.0057C24.9496 14.8595 24.9052 15.17 24.7278 15.547C24.3841 16.2456 24.0403 16.3676 22.3216 16.3676C20.0817 16.3676 19.7379 16.0571 19.7379 14.0722V12.9301H22.3437H24.9496V14.0057ZM12.752 14.6266C12.752 14.6488 12.4526 17.3545 12.0867 20.6367C11.7208 23.919 11.4214 26.6246 11.4214 26.6468C11.4214 26.6579 9.46976 26.6801 7.08569 26.6801C3.01613 26.6801 2.76109 26.669 2.81653 26.4805C2.8498 26.3807 3.52621 23.6639 4.33569 20.4371L5.78831 14.5934H9.27016C11.1885 14.5934 12.752 14.6155 12.752 14.6266ZM49.2339 14.8373C49.2893 14.9815 49.9657 17.6095 50.7308 20.6922C51.496 23.7748 52.1502 26.3807 52.1835 26.4805C52.2389 26.669 51.9839 26.6801 47.9143 26.6801H43.5786L43.5343 26.425C43.4788 26.2032 42.248 14.8706 42.248 14.671C42.248 14.6266 43.8004 14.5934 45.6855 14.5934H49.123L49.2339 14.8373ZM15.4355 22.8212C16.7218 24.7174 19.25 26.924 21.0575 27.7335L21.5454 27.9442L21.4788 29.0641C21.3901 30.7718 20.8579 31.9028 19.7379 32.7234C18.873 33.3555 18.0857 33.5883 16.9546 33.5329C16.1895 33.4996 15.879 33.422 15.3468 33.167C14.5373 32.7678 13.6613 31.9139 13.3175 31.171C12.996 30.4835 12.8075 29.419 12.9073 28.8645L12.9849 28.4543H15.0806H17.1875V27.5672V26.6801H15.1915C13.2843 26.6801 13.1956 26.669 13.1956 26.4583C13.1956 26.3474 13.3508 24.8948 13.5282 23.2426C13.7167 21.5903 13.8609 20.1821 13.8609 20.1045C13.8609 20.0268 14.0605 20.3817 14.3044 20.8807C14.5373 21.3797 15.0474 22.2557 15.4355 22.8212ZM41.4718 23.5087C41.6603 25.2053 41.7933 26.6135 41.7712 26.6357C41.749 26.669 40.3962 26.669 38.755 26.6579L35.7944 26.6246L36.3155 26.2476C38.0232 25.0168 39.8196 22.8101 40.7732 20.7365C40.9395 20.3706 41.0837 20.1599 41.1058 20.2486C41.1169 20.3373 41.2833 21.801 41.4718 23.5087ZM11.0665 29.4301C11.0444 30.2506 10.9778 30.5057 10.6784 31.1266C10.246 32.0137 9.44758 32.7899 8.56048 33.2002C8.00605 33.4664 7.79536 33.4996 6.81956 33.4996C5.84375 33.4996 5.63306 33.4664 5.07863 33.2002C4.19153 32.7899 3.39315 32.0137 2.97177 31.1377C2.67238 30.5389 2.60585 30.2617 2.57258 29.4412L2.52823 28.4543H6.81956H11.1109L11.0665 29.4301ZM42.0706 29.042C42.2812 30.6609 41.2167 32.4351 39.5867 33.2113C39.0433 33.4664 38.8437 33.4996 37.8125 33.4996C36.748 33.4996 36.5927 33.4664 35.994 33.178C34.4304 32.4018 33.4879 30.8051 33.4879 28.9422V28.4543H37.746H42.004L42.0706 29.042ZM52.4274 29.4412C52.3942 30.2617 52.3276 30.5389 52.0282 31.1377C51.6069 32.0137 50.8085 32.7899 49.9214 33.2002C49.3669 33.4664 49.1562 33.4996 48.1804 33.4996C47.1714 33.4996 47.005 33.4664 46.3508 33.1559C44.7319 32.3797 43.8226 30.794 43.8004 28.7537V28.4543H48.1361H52.4718L52.4274 29.4412ZM24.6169 28.9311C26.1139 29.2637 28.8861 29.2637 30.3831 28.9311C30.9597 28.798 31.5363 28.6649 31.6472 28.6095C31.8468 28.5319 31.8579 28.5762 31.7913 29.3524C31.6472 31.3484 30.5383 32.8121 28.7419 33.3887C27.877 33.677 26.502 33.5772 25.7036 33.1891C24.2067 32.4573 23.3196 31.1266 23.2087 29.4522C23.1421 28.5762 23.1532 28.5319 23.3528 28.6095C23.4637 28.6649 24.0403 28.798 24.6169 28.9311ZM12.3085 32.8343C12.6633 33.4109 13.6835 34.2647 14.4819 34.6639C15.247 35.041 16.4113 35.3293 17.1875 35.3293C18.9728 35.3293 20.9466 34.3091 22.0776 32.801L22.3548 32.4462L22.7651 33.0006C23.7853 34.3756 25.7258 35.3293 27.5 35.3293C29.2853 35.3293 31.2591 34.3091 32.4012 32.801L32.6784 32.424L33.0998 33.0006C34.0867 34.3424 36.0827 35.3293 37.8125 35.3293C38.5887 35.3293 39.753 35.041 40.5181 34.6639C41.3165 34.2647 42.3367 33.4109 42.6915 32.8454L42.9244 32.4684L43.8337 33.3776C45.0756 34.6307 46.1734 35.1629 47.7923 35.296C48.5685 35.3514 49.7772 35.1518 50.5978 34.8303C50.7641 34.7526 50.7863 34.8414 50.7863 35.8172V36.8817H27.5H4.21371V35.8282C4.21371 35.2516 4.23589 34.7748 4.24698 34.7748C4.26915 34.7748 4.57964 34.8857 4.94556 35.0077C5.44456 35.1962 5.86593 35.2516 6.76411 35.2627C8.12802 35.2738 8.99294 35.0299 10.0575 34.3424C10.6784 33.9432 11.8649 32.7567 11.8649 32.546C11.8649 32.3242 12.0756 32.4684 12.3085 32.8343ZM19.7379 43.3131V48.0813H11.9758H4.21371V43.3908C4.21371 40.8071 4.24698 38.6559 4.29133 38.6226C4.3246 38.5783 7.81754 38.545 12.0534 38.545H19.7379V43.3131ZM33.4879 46.7506V54.9563H27.5H21.5121V46.7506V38.545H27.5H33.4879V46.7506ZM19.7379 52.4059V54.9563H11.9758H4.21371V52.4059V49.8555H11.9758H19.7379V52.4059ZM50.7863 52.4059V54.9563H43.0242H35.2621V52.4059V49.8555H43.0242H50.7863V52.4059Z" fill="white"/>
</svg>
