<svg width="52" height="51" viewBox="0 0 52 51" fill="none" xmlns="http://www.w3.org/2000/svg">
<path d="M42.8434 0.163096C41.969 0.389423 41.3209 0.677476 40.6625 1.11984C40.395 1.29473 37.9157 3.69174 35.1689 6.42825L30.1691 11.4177L29.0992 11.1503C28.5128 11.0062 27.6384 10.8416 27.1548 10.7902C26.4141 10.7079 26.2598 10.6565 26.1261 10.461C25.1282 8.93842 23.6056 7.88909 21.867 7.51873C21.1674 7.37471 19.7375 7.38499 19.0276 7.5496C18.8013 7.60103 18.719 7.52902 18.3384 6.94263C17.7828 6.09904 16.5689 4.94683 15.6636 4.41188C13.0197 2.84816 9.63505 2.92017 7.06314 4.60734C5.26281 5.76984 4.10031 7.41586 3.51392 9.59683C3.33903 10.2552 3.27731 12.1584 3.41104 12.9094L3.49335 13.3312L2.82465 13.6501C1.54899 14.2468 0.520228 15.5019 0.149874 16.901C-0.51882 19.4832 1.11691 22.1786 3.77111 22.8678C4.23405 22.9913 5.06735 23.0222 7.62896 23.0222H10.9004L10.8284 23.6085C10.705 24.5241 10.7461 27.1166 10.8901 27.8059C10.9621 28.1454 11.137 28.7935 11.2811 29.2359L11.5383 30.0486L7.87586 33.711L4.22377 37.3734L2.14567 42.7744C1.00375 45.7475 0.046998 48.3502 0.0161352 48.556C-0.158754 49.8831 1.11691 51.1588 2.44401 50.9839C2.64976 50.953 5.25253 49.9963 8.22564 48.8543L13.6266 46.7762L16.2808 44.1323L18.9248 41.4884V41.9102C18.9248 42.404 19.0791 42.9184 19.3568 43.3093C19.5523 43.5974 19.5523 43.5974 19.3568 43.8751C18.719 44.801 18.8013 45.9635 19.5523 46.8277C19.7683 47.0643 20.1181 47.3421 20.3342 47.4449C20.6428 47.5787 20.7971 47.7536 21.0749 48.2782C21.7127 49.5127 22.9472 50.4901 24.3257 50.8501C26.4861 51.4057 28.8934 50.3152 29.9428 48.2782C30.2205 47.7536 30.3749 47.5787 30.6835 47.4449C31.4242 47.1054 32.0929 46.1075 32.0929 45.336C32.0929 45.1096 32.134 45.1302 32.5764 45.5726L33.0599 46.0561L33.8006 45.3463C34.8808 44.3278 35.6627 44.1632 36.424 44.801C36.9075 45.2125 37.0309 45.6137 37.0309 46.7351V47.7124H39.5H41.969V46.7351C41.969 45.6137 42.0924 45.2125 42.576 44.801C43.3372 44.1632 44.1191 44.3278 45.1993 45.3463L45.94 46.0561L47.658 44.3381L49.3658 42.62L48.6559 41.8793C47.6375 40.8197 47.4729 40.0276 48.1107 39.2663C48.5222 38.7828 48.9234 38.6593 50.0448 38.6593H51.0221V36.1903V33.7213H50.0448C48.9234 33.7213 48.5222 33.5978 48.1107 33.1143C47.4729 32.353 47.6375 31.5712 48.6559 30.491L49.3658 29.7502L47.6477 28.0322L45.9297 26.3142L45.3125 26.9314C44.2425 28.0116 43.3475 28.2277 42.576 27.5693C42.0924 27.1681 41.969 26.7668 41.969 25.6558V24.6785L41.1254 24.6476L40.2715 24.6167L40.1892 23.7937C40.1481 23.3411 39.9938 22.4872 39.8497 21.9008L39.5823 20.8309L44.5717 15.8311C47.3083 13.0843 49.7053 10.605 49.8802 10.3375C51.9582 7.25126 51.0118 2.88931 47.8432 0.965529C46.4235 0.10137 44.3763 -0.227833 42.8434 0.163096ZM45.3845 1.7371C47.6889 2.22062 49.3966 4.33986 49.3658 6.69572C49.3555 8.0434 48.7691 9.27791 47.6066 10.4404L46.907 11.14L43.3887 7.61132L39.86 4.09296L40.5596 3.3934C40.9402 3.01276 41.5163 2.52924 41.8352 2.34407C42.864 1.71652 44.2014 1.4902 45.3845 1.7371ZM13.5546 5.25546C14.9332 5.72869 16.0751 6.57227 16.8364 7.66276L17.2684 8.26973L16.61 8.74296C15.4475 9.58654 14.4394 11.1605 14.1513 12.5494C14.0176 13.1975 14.0176 13.1975 13.4517 13.4753C12.4436 13.9588 11.6926 14.9464 11.5485 15.9751L11.4868 16.4381H12.3098H13.1225L13.246 15.9854C13.6575 14.432 15.9619 14.432 16.3734 15.9854L16.4969 16.4381H17.3096H18.1326L18.0709 15.9751C17.9269 14.9567 17.0936 13.8559 16.1882 13.4855C15.7356 13.3004 15.715 13.2901 15.7665 12.9197C15.8488 12.2613 16.4146 11.2223 17.0215 10.5844C18.2561 9.29849 20.077 8.75325 21.7333 9.18533C24.0583 9.79229 25.6734 11.9836 25.478 14.2777C25.4059 15.1521 25.3751 15.2036 24.8401 15.5431C23.9554 16.0986 23.225 17.2817 23.0809 18.3619L23.0089 18.9071H23.8525C24.5521 18.9071 24.6858 18.8762 24.6858 18.7425C24.6858 17.6314 25.9718 16.4381 27.1548 16.4381C28.4305 16.4381 29.6239 17.6314 29.6239 18.9071C29.6239 19.8844 28.7906 21.0058 27.875 21.2527C27.5149 21.3556 24.7578 21.3761 15.7356 21.3556L4.05916 21.3247L3.5345 21.0469C2.75264 20.6354 2.43372 20.3268 2.04279 19.6067C1.72388 19.01 1.69301 18.8865 1.7033 18.0841C1.7033 17.0553 1.9502 16.4381 2.6189 15.7694C3.28759 15.1007 3.90485 14.8538 4.93361 14.8538C5.68461 14.8538 5.88007 14.8949 6.33272 15.1213C6.62078 15.2756 7.00142 15.5122 7.16602 15.6562C7.56724 15.9957 8.0919 16.9833 8.17421 17.5903L8.24622 18.0841H9.05894H9.87166V17.7961C9.87166 17.6417 9.79965 17.2405 9.71735 16.901C9.22354 15.0287 7.65983 13.5678 5.77719 13.2386C5.36569 13.1666 5.12907 13.0638 5.08792 12.9609C4.92332 12.5391 4.91303 10.9136 5.07764 10.1626C5.59202 7.7142 7.65983 5.61553 10.0774 5.07028C11.0753 4.84396 12.6082 4.92626 13.5546 5.25546ZM42.2262 8.82526L45.724 12.323L45.0758 12.9609L44.438 13.609L40.9196 10.0906L37.391 6.56199L38.0083 5.94473C38.3477 5.60524 38.6461 5.32747 38.677 5.32747C38.7078 5.32747 40.3024 6.90148 42.2262 8.82526ZM37.6996 9.23676L39.1399 10.677L37.247 12.5699L35.3541 14.4629L34.5413 13.8147C33.8726 13.2901 32.3912 12.3539 31.9386 12.179C31.846 12.1482 36.0845 7.7965 36.2079 7.7965C36.2388 7.7965 36.9075 8.44462 37.6996 9.23676ZM41.8147 13.3518L43.2549 14.7921L41.0534 16.9833C39.8497 18.1767 38.8416 19.1129 38.821 19.0614C38.6358 18.5985 37.7099 17.1274 37.1852 16.4689L36.5371 15.6665L38.4095 13.7839C39.4279 12.7551 40.2921 11.9115 40.323 11.9115C40.3538 11.9115 41.0225 12.5597 41.8147 13.3518ZM28.7391 12.7448C32.3809 13.6604 35.5187 16.1912 37.2573 19.617C38.8621 22.765 39.109 26.5302 37.9054 29.4108C37.3704 30.6761 36.568 31.7152 34.4076 33.927C33.276 35.0895 32.1546 36.2623 31.9283 36.5504C31.3728 37.219 30.5909 38.4433 30.3337 39.0194L30.128 39.4823H28.235H26.3318V37.2602C26.3318 34.6163 26.2804 34.39 25.5603 33.6698C24.9121 33.0114 24.5315 32.8983 23.0501 32.8983C21.9699 32.8983 21.8876 32.888 21.651 32.6411C21.4864 32.4868 21.3938 32.2707 21.3938 32.0752C21.3938 31.8798 21.4864 31.6637 21.651 31.5094L21.8979 31.2522H26.3421C29.5313 31.2522 30.8995 31.2214 31.2082 31.1288C32.0929 30.8613 32.9159 29.7297 32.9159 28.7832C32.9159 27.8368 32.0929 26.7051 31.2082 26.4376C30.9098 26.3553 29.7062 26.3142 27.1651 26.3142H23.5439L23.297 26.057C23.0501 25.8204 23.0398 25.7587 23.0398 24.4213V23.0427L25.5911 23.0016L28.1322 22.9707L28.8214 22.6415C29.7782 22.1889 30.3749 21.6128 30.8378 20.6766C31.1979 19.9359 31.2184 19.8433 31.2184 18.9174C31.2184 18.0224 31.1876 17.8681 30.8892 17.2405C30.7143 16.8599 30.3749 16.3455 30.1382 16.0883C29.5827 15.4916 28.4819 14.9258 27.6898 14.8332L27.1034 14.7715V13.9279C27.1034 13.4753 27.0725 12.9403 27.0314 12.7448L26.9491 12.4053L27.4429 12.4774C27.7104 12.5082 28.2968 12.6317 28.7391 12.7448ZM21.3938 24.4213C21.3938 25.2237 21.4452 26.0056 21.5172 26.2525C21.6818 26.8183 22.5357 27.6722 23.1015 27.8368C23.3999 27.9191 24.6035 27.9602 27.1445 27.9602H30.7658L31.0127 28.2174C31.1773 28.3717 31.2699 28.5877 31.2699 28.7832C31.2699 28.9787 31.1773 29.1947 31.0127 29.349L30.7658 29.6062H26.3215C23.1324 29.6062 21.7641 29.6371 21.4555 29.7297C20.8897 29.8943 20.0358 30.7481 19.8712 31.314C19.5832 32.281 19.7889 33.0526 20.5193 33.7727C21.1674 34.4311 21.5481 34.5443 23.0295 34.5443C24.1097 34.5443 24.192 34.5546 24.4286 34.8015C24.6858 35.0484 24.6858 35.0484 24.6858 37.2705V39.4823H22.7826H20.8897L20.6839 39.0194C20.4267 38.4433 19.6449 37.219 19.0894 36.5504C18.863 36.2623 17.7417 35.0895 16.61 33.927C13.8838 31.1391 13.1843 30.0897 12.639 27.9602C12.3613 26.8903 12.2892 25.3472 12.4436 24.0715L12.567 23.0222H16.9804H21.3938V24.4213ZM40.9711 28.2997C41.2591 28.6803 41.897 29.1536 42.4216 29.3799C43.3064 29.7605 44.6232 29.5959 45.4565 28.9787L45.9091 28.6598L46.4647 29.2256L47.0305 29.7811L46.7116 30.2235C46.3515 30.7173 46.084 31.5094 46.084 32.065C46.084 32.6719 46.3927 33.5669 46.7939 34.0916C47.2671 34.7294 47.9461 35.141 48.7485 35.2953L49.3761 35.4187V36.2006V36.9824L48.8823 37.0544C46.5161 37.3631 45.3022 40.2127 46.7116 42.1468L47.0305 42.5995L46.4647 43.155L45.9091 43.7208L45.4565 43.4019C43.5224 41.9925 40.6727 43.2064 40.3641 45.5726L40.2921 46.0664H39.5H38.7078L38.6358 45.5726C38.3272 43.2064 35.4775 41.9925 33.5434 43.4019L33.1011 43.7208L32.5558 43.1859L32.0106 42.6406L32.062 42.1057C32.1135 41.6633 32.0723 41.4575 31.8357 40.9329L31.5476 40.295L31.9797 39.4515C32.4118 38.5976 33.4817 37.1162 33.7183 37.0339C33.7903 37.0133 33.8418 37.0853 33.8418 37.1882C33.8418 37.5688 34.2739 38.6593 34.6751 39.2766C35.4261 40.4494 36.4651 41.2312 37.8539 41.7044C38.6358 41.9719 40.3641 41.9719 41.146 41.7044C42.4834 41.2621 43.7899 40.2436 44.4071 39.1943C45.7754 36.859 45.4256 34.0196 43.5533 32.137C42.5142 31.1082 40.9711 30.4292 39.6337 30.4292C39.4485 30.4292 39.2942 30.4087 39.2942 30.3881C39.2942 30.3675 39.3868 30.1309 39.5102 29.8737C39.788 29.2256 40.2201 27.5281 40.2304 26.9932V26.5714L40.4567 27.2504C40.5904 27.6207 40.8168 28.0939 40.9711 28.2997ZM14.1719 33.8036L15.0463 34.7706L12.0526 37.7643L9.04865 40.7683L7.58781 39.2971L6.11668 37.8363L9.24412 34.7089L12.3715 31.5814L12.8345 32.209C13.0917 32.5588 13.6884 33.2789 14.1719 33.8036ZM41.1871 32.4662C42.1233 32.8983 42.72 33.4949 43.1829 34.4208C43.543 35.1615 43.5636 35.2541 43.5636 36.1903C43.5636 37.1265 43.543 37.219 43.1829 37.9598C42.72 38.8959 42.1233 39.472 41.1666 39.9247C40.539 40.223 40.3847 40.2539 39.5 40.2539C38.6152 40.2539 38.4609 40.223 37.8334 39.9247C36.8766 39.472 36.2799 38.8959 35.817 37.9598C35.4569 37.2293 35.4364 37.1162 35.4364 36.2314V35.285L36.2079 34.4723C36.64 34.0299 37.2573 33.3612 37.5762 32.9806C38.2757 32.1781 38.5638 32.065 39.7263 32.1164C40.3538 32.1473 40.6727 32.2296 41.1871 32.4662ZM17.1553 36.8487C17.5977 37.3322 18.184 38.0318 18.4412 38.4227L18.9145 39.1223L16.0442 42.0028L13.1637 44.8833L11.7029 43.4122L10.2317 41.9513L13.2151 38.9679C14.8509 37.3322 16.2294 35.9845 16.2603 35.9845C16.3014 35.9845 16.7026 36.3755 17.1553 36.8487ZM11.5383 45.768C11.4971 45.8092 10.2935 46.2927 8.85319 46.838L6.25042 47.8461L4.70728 46.2927L3.15385 44.7496L4.16204 42.1468C4.70728 40.7065 5.18051 39.4926 5.21138 39.4412C5.24224 39.4 6.69279 40.7786 8.44168 42.5275C10.1906 44.2763 11.5794 45.7372 11.5383 45.768ZM30.1897 41.3855C30.3543 41.5398 30.4469 41.7559 30.4469 41.9513C30.4469 42.1468 30.3543 42.3629 30.1897 42.5172L29.9428 42.7744H25.5088H21.0749L20.828 42.5172C20.6634 42.3629 20.5708 42.1468 20.5708 41.9513C20.5708 41.7559 20.6634 41.5398 20.828 41.3855L21.0749 41.1283H25.5088H29.9428L30.1897 41.3855ZM30.1897 44.6776C30.3543 44.8319 30.4469 45.0479 30.4469 45.2434C30.4469 45.4388 30.3543 45.6549 30.1897 45.8092L29.9428 46.0664H25.5088H21.0749L20.828 45.8092C20.6634 45.6549 20.5708 45.4388 20.5708 45.2434C20.5708 45.0479 20.6634 44.8319 20.828 44.6776L21.0749 44.4204H25.5088H29.9428L30.1897 44.6776ZM4.49124 48.4943C4.41923 48.5766 2.29998 49.3584 2.16624 49.3584C1.96049 49.3584 1.64158 49.0498 1.64158 48.8543C1.64158 48.7617 1.83704 48.1856 2.07366 47.5787L2.49545 46.4676L3.50363 47.4655C4.05916 48.021 4.50153 48.484 4.49124 48.4943ZM28.1939 48.0107C27.5663 48.8852 26.7125 49.2967 25.5088 49.2967C24.3052 49.2967 23.4513 48.8852 22.8238 48.0107L22.618 47.7124H25.5088H28.3996L28.1939 48.0107Z" fill="white"/>
</svg>
