<svg width="86" height="60" viewBox="0 0 86 60" fill="none" xmlns="http://www.w3.org/2000/svg">
<path d="M54.7513 2.53768C50.9531 3.93999 47.7935 5.14197 47.7262 5.20875C47.4909 5.37569 48.8018 8.91485 49.7094 10.5843C50.8522 12.6543 53.1379 14.09 55.4236 14.1234C56.8689 14.1568 57.1379 14.257 57.4068 14.9915C57.5748 15.459 59.2219 19.933 61.1042 24.9746C62.9865 30.0162 64.4991 34.2232 64.4991 34.3567C64.4991 34.4569 62.9193 35.1247 60.9697 35.8258C59.0202 36.527 57.4404 37.2615 57.4404 37.4618C57.4404 37.6956 57.9782 39.2648 58.6168 40.9676C59.8941 44.4066 61.4739 46.7772 63.3899 48.2463L64.5999 49.1811L63.7932 49.682C63.3562 49.9824 62.2134 50.9507 61.2386 51.8188L59.4908 53.4548L58.2135 52.4198C55.3564 50.1494 50.6169 48.7137 45.9447 48.7137C43.3565 48.7137 43.3229 48.7137 43.3229 47.8456C43.3229 47.1444 43.4574 47.0109 43.928 47.2112C44.2305 47.3448 45.4069 47.5117 46.4826 47.6119C48.6338 47.8456 48.8355 47.4449 46.9867 46.7104L45.9784 46.2763L48.3985 45.0076C50.9867 43.6387 52.3648 42.5369 51.9615 42.1362C51.7262 41.9359 49.5077 42.3031 47.4237 42.9041C46.7178 43.1045 46.7851 42.9041 48.2304 39.9326C49.7766 36.7607 50.4825 34.0228 49.7766 34.0228C49.2724 34.0228 47.3565 35.9594 45.9784 37.8625L44.8355 39.4317L44.6002 36.8275C44.2641 33.1214 43.6591 30.1498 43.1213 29.4486C42.6843 28.881 42.6171 28.881 42.1801 29.482C41.5078 30.3167 41.0036 32.8209 40.7347 36.4936L40.5331 39.4985L39.8272 38.5303C38.7516 37.0278 35.8609 34.0228 35.4911 34.0228C34.7852 34.0228 35.5583 37.0946 37.0373 39.9993C37.8776 41.6688 38.4491 43.0377 38.3482 43.0377C38.2138 43.0377 37.3734 42.804 36.4659 42.5369C35.5583 42.2697 34.3483 42.036 33.7769 42.036H32.7349L33.6088 42.8707C34.0458 43.3382 35.5247 44.273 36.9029 45.0076L39.323 46.2763L38.3146 46.7104C36.5331 47.4449 36.6676 47.8122 38.6507 47.6119C39.6591 47.5117 40.802 47.3114 41.2389 47.1778C41.9448 46.9775 42.012 47.0443 41.9112 47.879C41.8104 48.7137 41.6087 48.8472 39.4238 49.3815C37.0037 49.9824 33.8105 51.4181 33.4071 52.0191C33.3063 52.2195 32.2979 51.752 31.1214 50.9507C27.9618 48.7805 22.9199 47.3782 18.3821 47.3782H16.4326V45.9091V44.44L18.0124 44.9074C19.8947 45.475 22.9535 45.5418 22.6174 45.0076C22.5165 44.8073 21.777 44.3732 21.0376 44.0727L19.6258 43.4717L22.651 41.9359C25.6761 40.4 27.5249 38.9977 27.5249 38.2965C27.5249 37.7957 24.735 38.163 22.3821 38.9977C21.3065 39.365 20.4661 39.5987 20.4661 39.5319C20.4661 39.4317 20.9703 38.4301 21.609 37.2949C24.2308 32.5871 25.5753 28.0129 24.3316 28.0129C23.693 28.0129 21.9115 29.8159 19.7939 32.5538C18.4157 34.3901 18.1132 34.6572 18.1132 33.9895C18.0796 32.0529 17.4074 26.644 16.9032 24.6073C16.6007 23.4054 16.0965 22.1366 15.7267 21.8027C15.1217 21.2685 15.0545 21.3019 14.4494 22.7042C13.7436 24.3068 13.1385 27.6457 12.8024 31.9862L12.5671 34.7574L11.3906 33.1547C8.668 29.3151 5.67645 26.9111 5.67645 28.5138C5.67645 29.5154 7.1218 33.2549 8.70161 36.3934L10.3486 39.5987L7.82768 38.8308C4.86974 37.8959 3.32354 37.7957 3.32354 38.5303C3.32354 39.0979 7.18903 41.7021 9.60916 42.7706L11.1554 43.4383L9.81084 44.0393C9.03774 44.3732 8.33187 44.8073 8.23103 45.0076C7.79406 45.7087 11.8276 45.3749 13.8444 44.5402C14.3486 44.3398 14.4158 44.5068 14.4158 45.8423C14.4158 46.8106 14.2477 47.4449 14.0125 47.5117C13.7772 47.5785 12.5335 47.879 11.2226 48.1795C6.38232 49.2813 1.97903 52.1861 0.600895 55.191C-0.205815 56.9606 -0.205815 57.6284 0.634508 58.0624C1.84457 58.6968 7.59239 59.3646 15.4914 59.7652C24.5669 60.1993 62.9865 59.9989 71.8939 59.4313C77.9106 59.0307 84.0618 58.4631 85.2719 58.1626C86.2803 57.9289 86.2467 56.9606 85.1374 54.7904C84.0282 52.5533 81.4736 50.3497 78.4484 49.0142L76.0955 47.9458L77.0367 46.076C78.1123 43.9058 78.7174 40.8007 78.4484 38.8641C78.1459 36.7941 75.8939 30.684 75.4233 30.684C75.2216 30.684 73.541 31.2182 71.7595 31.886C69.9444 32.5538 68.4318 33.0212 68.3646 32.9544C68.2973 32.8876 66.5495 28.3468 64.5327 22.8712L60.8353 12.8881L62.0117 11.8196C63.4571 10.4507 64.2302 8.61435 64.2302 6.57767C64.2302 4.80809 62.6168 -0.0332143 62.0117 0.000174036C61.81 0.000174036 58.5496 1.16876 54.7513 2.53768ZM60.2639 5.84312C60.8353 8.11353 58.5832 10.3172 55.6925 10.3172C54.6505 10.3172 52.7346 8.74791 52.7346 7.9132C52.7346 7.54593 58.4824 5.14197 59.6588 5.00842C59.8941 5.00842 60.163 5.37569 60.2639 5.84312Z" fill="white"/>
</svg>
